<svg width="24" height="24" viewBox="0 0 24 24" fill="none" xmlns="http://www.w3.org/2000/svg">
<g clip-path="url(#clip0_5_170)">
<path d="M17.0002 24H7.00521C6.42682 23.9994 5.85537 23.8741 5.32986 23.6325C4.80435 23.3908 4.33717 23.0387 3.96021 22.6C3.58939 22.1705 3.31559 21.666 3.15751 21.121C2.99943 20.576 2.96078 20.0033 3.04421 19.442C3.58071 16.5173 5.14084 13.8792 7.44521 12C5.14081 10.1202 3.581 7.48124 3.04521 4.556C2.96195 3.99509 3.00058 3.42283 3.15848 2.8782C3.31638 2.33357 3.58984 1.82939 3.96021 1.4C4.33717 0.961326 4.80435 0.60916 5.32986 0.367548C5.85537 0.125935 6.42682 0.000566288 7.00521 0L17.0002 0C17.5785 0.000512143 18.1498 0.125862 18.6751 0.367483C19.2005 0.609104 19.6675 0.9613 20.0442 1.4C20.4151 1.82895 20.6891 2.33285 20.8475 2.87732C21.0059 3.42179 21.0451 3.99403 20.9622 4.555C20.4205 7.48095 18.8573 10.1194 16.5512 12C18.856 13.8822 20.4174 16.5217 20.9572 19.448C21.0401 20.0091 21.0011 20.5815 20.8426 21.1262C20.6842 21.6708 20.4102 22.1749 20.0392 22.604C19.6627 23.0413 19.1963 23.3924 18.6719 23.6333C18.1475 23.8742 17.5773 23.9993 17.0002 24ZM17.0002 2H7.00521C6.71513 1.99976 6.42843 2.06218 6.1647 2.18299C5.90098 2.30381 5.66647 2.48016 5.47721 2.7C5.29231 2.91037 5.15574 3.15871 5.07714 3.42754C4.99853 3.69636 4.97978 3.97915 5.02221 4.256C5.39721 6.756 6.94421 9.096 9.62221 11.213C9.74046 11.3066 9.83599 11.4258 9.90166 11.5615C9.96734 11.6973 10.0015 11.8462 10.0015 11.997C10.0015 12.1478 9.96734 12.2967 9.90166 12.4325C9.83599 12.5682 9.74046 12.6874 9.62221 12.781C6.94421 14.9 5.40021 17.242 5.02221 19.741C4.97932 20.0183 4.99784 20.3017 5.07646 20.5711C5.15508 20.8404 5.29189 21.0893 5.47721 21.3C5.66647 21.5198 5.90098 21.6962 6.1647 21.817C6.42843 21.9378 6.71513 22.0002 7.00521 22H17.0002C17.2903 22.0002 17.577 21.9378 17.8407 21.817C18.1044 21.6962 18.339 21.5198 18.5282 21.3C18.713 21.0899 18.8496 20.842 18.9284 20.5735C19.0072 20.3051 19.0262 20.0226 18.9842 19.746C18.6112 17.259 17.0642 14.917 14.3842 12.784C14.2667 12.6903 14.1718 12.5714 14.1066 12.436C14.0414 12.3006 14.0075 12.1523 14.0075 12.002C14.0075 11.8517 14.0414 11.7034 14.1066 11.568C14.1718 11.4326 14.2667 11.3137 14.3842 11.22C17.0652 9.087 18.6122 6.745 18.9842 4.257C19.0261 3.97955 19.0065 3.69629 18.9268 3.42725C18.8472 3.1582 18.7094 2.90994 18.5232 2.7C18.3345 2.4808 18.1008 2.30482 17.838 2.18403C17.5752 2.06324 17.2894 2.00047 17.0002 2Z" fill="#F0F757"/>
</g>
<defs>
<clipPath id="clip0_5_170">
<rect width="24" height="24" fill="white"/>
</clipPath>
</defs>
</svg>
