<svg width="24" height="24" viewBox="0 0 24 24" fill="none" xmlns="http://www.w3.org/2000/svg">
<g clip-path="url(#clip0_125_505)">
<path d="M13.9999 13C14.0015 13.3515 13.9105 13.6971 13.736 14.0022C13.5614 14.3072 13.3096 14.5609 13.0058 14.7377C12.7021 14.9144 12.3571 15.008 12.0056 15.009C11.6542 15.01 11.3087 14.9184 11.0039 14.7434C10.6991 14.5683 10.4459 14.3161 10.2696 14.012C10.0934 13.7079 10.0004 13.3628 9.99997 13.0113C9.99957 12.6599 10.0918 12.3145 10.2673 12.01C10.4429 11.7056 10.6956 11.4527 10.9999 11.277V7C10.9999 6.73478 11.1053 6.48043 11.2928 6.29289C11.4804 6.10536 11.7347 6 11.9999 6C12.2652 6 12.5195 6.10536 12.7071 6.29289C12.8946 6.48043 12.9999 6.73478 12.9999 7V11.277C13.3031 11.4513 13.555 11.7023 13.7305 12.0047C13.9061 12.3071 13.999 12.6503 13.9999 13ZM20.0599 5.539C21.517 7.10778 22.4845 9.06766 22.8439 11.1783C23.2033 13.2889 22.9389 15.4586 22.0832 17.4212C21.2275 19.3837 19.8176 21.0539 18.0265 22.2269C16.2354 23.3999 14.141 24.0247 11.9999 24.0247C9.85893 24.0247 7.76445 23.3999 5.97336 22.2269C4.18226 21.0539 2.77242 19.3837 1.91671 17.4212C1.061 15.4586 0.796635 13.2889 1.15602 11.1783C1.51541 9.06766 2.48294 7.10778 3.93995 5.539L3.26795 4.792C2.86079 4.93532 2.43155 5.00573 1.99995 5C1.73473 5 1.48037 4.89464 1.29284 4.70711C1.1053 4.51957 0.999945 4.26522 0.999945 4C0.999945 3.73478 1.1053 3.48043 1.29284 3.29289C1.48037 3.10536 1.73473 3 1.99995 3C2.78495 3 2.99995 2.785 2.99995 2C2.99995 1.73478 3.1053 1.48043 3.29284 1.29289C3.48037 1.10536 3.73473 1 3.99995 1C4.26516 1 4.51952 1.10536 4.70705 1.29289C4.89459 1.48043 4.99995 1.73478 4.99995 2C5.00577 2.48663 4.91042 2.96916 4.71994 3.417L5.42595 4.201C7.04805 2.98027 8.97825 2.23576 10.9999 2.051V1C10.9999 0.734784 11.1053 0.48043 11.2928 0.292893C11.4804 0.105357 11.7347 0 11.9999 0C12.2652 0 12.5195 0.105357 12.7071 0.292893C12.8946 0.48043 12.9999 0.734784 12.9999 1V2.051C15.0215 2.23546 16.9517 2.97963 18.5739 4.2L19.2799 3.416C19.0896 2.96847 18.9943 2.48629 18.9999 2C18.9999 1.73478 19.1053 1.48043 19.2928 1.29289C19.4804 1.10536 19.7347 1 19.9999 1C20.2652 1 20.5195 1.10536 20.7071 1.29289C20.8946 1.48043 20.9999 1.73478 20.9999 2C20.9999 2.785 21.2149 3 21.9999 3C22.2652 3 22.5195 3.10536 22.7071 3.29289C22.8946 3.48043 22.9999 3.73478 22.9999 4C22.9999 4.26522 22.8946 4.51957 22.7071 4.70711C22.5195 4.89464 22.2652 5 21.9999 5C21.5683 5.00573 21.1391 4.93532 20.7319 4.792L20.0599 5.539ZM20.9999 13C20.9999 11.22 20.4721 9.47991 19.4832 7.99987C18.4942 6.51983 17.0886 5.36627 15.4441 4.68508C13.7996 4.0039 11.99 3.82567 10.2441 4.17293C8.4983 4.5202 6.89466 5.37737 5.63598 6.63604C4.37731 7.89471 3.52014 9.49836 3.17288 11.2442C2.82561 12.99 3.00384 14.7996 3.68503 16.4442C4.36622 18.0887 5.51977 19.4943 6.99981 20.4832C8.47986 21.4722 10.2199 22 11.9999 22C14.3861 21.9974 16.6737 21.0483 18.361 19.361C20.0482 17.6738 20.9973 15.3861 20.9999 13Z" fill="#F0F757"/>
</g>
<defs>
<clipPath id="clip0_125_505">
<rect width="24" height="24" fill="white"/>
</clipPath>
</defs>
</svg>
